<svg xmlns="http://www.w3.org/2000/svg" xmlns:xlink="http://www.w3.org/1999/xlink" width="70" height="35" viewBox="0 0 70 35">
  <defs>
    <clipPath id="clip-markerIcon">
      <rect width="70" height="35"/>
    </clipPath>
  </defs>
  <g id="markerIcon" clip-path="url(#clip-markerIcon)">
    <path id="Rectangle_29" data-name="Rectangle 29" d="M8.5,0h18A8.5,8.5,0,0,1,35,8.5v0A8.5,8.5,0,0,1,26.5,17H0a0,0,0,0,1,0,0V8.5A8.5,8.5,0,0,1,8.5,0Z" transform="translate(35 2)" fill="#fff"/>
    <text id="_1m" data-name="1m" transform="translate(45 14)" fill="#313131" font-size="11" font-family="Roboto-Bold, Roboto" font-weight="700"><tspan x="0" y="0">1m</tspan></text>
    <g id="Group_24" data-name="Group 24" transform="translate(-55 -55)">
      <path id="Path_5" data-name="Path 5" d="M17.557,0A17.443,17.443,0,0,1,35,17.443V35H17.443a17.5,17.5,0,1,1,.114-35Z" transform="translate(55 55)" fill="#0673c6"/>
      <path id="Path_4" data-name="Path 4" d="M19.458,91.859V101.1a15.845,15.845,0,0,1-5.493-1.725V74.594h10.4a12.032,12.032,0,0,1,5.282,1.1,8.1,8.1,0,0,1,3.506,3.122,8.7,8.7,0,0,1,1.227,4.6A7.654,7.654,0,0,1,31.7,89.6a11.172,11.172,0,0,1-7.424,2.261Zm0-4.449h4.907a4.825,4.825,0,0,0,3.323-1.025,3.729,3.729,0,0,0,1.144-2.929,4.4,4.4,0,0,0-1.153-3.168,4.309,4.309,0,0,0-3.186-1.245H19.458Z" transform="translate(50.544 -11.252)" fill="#fff"/>
    </g>
  </g>
</svg>
